<?xml version="1.0" encoding="utf-8"?>
<!-- Generator: Adobe Illustrator 16.0.0, SVG Export Plug-In . SVG Version: 6.00 Build 0)  -->
<!DOCTYPE svg PUBLIC "-//W3C//DTD SVG 1.1//EN" "http://www.w3.org/Graphics/SVG/1.1/DTD/svg11.dtd">
<svg version="1.1" id="레이어_1" xmlns="http://www.w3.org/2000/svg" xmlns:xlink="http://www.w3.org/1999/xlink" x="0px"
	 y="0px" width="100px" height="100px" viewBox="0 0 100 100" enable-background="new 0 0 100 100" xml:space="preserve">
<g id="그룹_4959" transform="translate(-871 -1049)">
	<rect id="사각형_1843" x="891" y="1057.5" fill="none" width="60" height="60"/>
	<g id="그룹_4952" transform="translate(191.02 1569.299)">
		<path id="패스_722" fill="#FFFFFF" d="M754.021-496.11v37.159c-0.001,1.293-1.049,2.34-2.341,2.342h-42.558
			c-1.293-0.002-2.341-1.049-2.343-2.342v-37.159h-1.8v37.159c0.003,2.285,1.855,4.139,4.143,4.141h42.558
			c2.286-0.002,4.139-1.854,4.141-4.141v-37.159H754.021z"/>
		<path id="패스_723" fill="#FFFFFF" d="M709.859-461.524c0.152,0.106,0.334,0.166,0.521,0.166c0.102,0,0.203-0.019,0.3-0.051
			c0.081-0.029,8.219-2.802,19.505,0.022c0.018,0,0.033,0,0.05,0.006c0.018,0.006,0.063,0.011,0.095,0.015
			c0.037,0.002,0.075,0.002,0.112,0c0.032,0,0.063-0.006,0.095-0.011c0.036-0.006,0.075-0.015,0.112-0.024
			c0.019-0.004,0.034-0.006,0.051-0.012c0.082-0.027,8.257-2.789,19.509,0.023c0.069,0.018,0.145,0.025,0.217,0.025
			c0.201,0,0.396-0.065,0.555-0.189c0.219-0.172,0.346-0.434,0.346-0.709v-37.254c0-0.365-0.221-0.695-0.56-0.833
			c-1.138-0.463-2.304-0.854-3.489-1.171v-7.381c0-0.322-0.172-0.621-0.451-0.781c-0.279-0.16-0.621-0.161-0.9,0l-15.658,9.146
			c-11.282-4.375-19.931,0.029-20.3,0.222c-0.298,0.156-0.483,0.464-0.482,0.8v37.254
			C709.481-461.968,709.622-461.693,709.859-461.524z M746.888-473.068c0.24-0.168,0.385-0.443,0.385-0.738v-25.834
			c0.753,0.216,1.506,0.457,2.249,0.741v35.5c-5.13-1.185-10.437-1.385-15.642-0.588L746.888-473.068z M731.526-499.186
			l13.947-8.146v33.057l-13.947,9.74V-499.186z M711.279-498.935c5.859-2.3,12.373-2.287,18.223,0.035v35.5
			c-3.123-0.703-6.314-1.063-9.516-1.066c-2.933-0.021-5.856,0.314-8.707,1.008V-498.935L711.279-498.935z"/>
	</g>
</g>
<g>
	<path fill="#FFFFFF" d="M45.457,79.559c-0.039,0.039-0.084,0.059-0.136,0.059h-6.89c-0.052,0-0.1-0.021-0.143-0.064
		c-0.043-0.044-0.065-0.092-0.065-0.144V78.68c0-0.043,0.024-0.089,0.072-0.136c0.047-0.048,0.097-0.071,0.149-0.071h6.877
		c0.052,0,0.098,0.021,0.136,0.064c0.039,0.043,0.059,0.091,0.059,0.143v0.741C45.516,79.473,45.496,79.52,45.457,79.559z
		 M41.979,80.031c0.39,0,0.758,0.055,1.105,0.162c0.346,0.109,0.646,0.259,0.897,0.449s0.45,0.418,0.598,0.683
		c0.147,0.265,0.221,0.558,0.221,0.878s-0.074,0.615-0.221,0.884s-0.349,0.501-0.604,0.694c-0.255,0.195-0.555,0.348-0.897,0.455
		c-0.342,0.109-0.714,0.164-1.112,0.164c-0.39,0-0.754-0.055-1.092-0.164c-0.338-0.107-0.633-0.26-0.884-0.455
		c-0.251-0.193-0.451-0.426-0.598-0.694s-0.221-0.563-0.221-0.884c0-0.321,0.073-0.613,0.221-0.878
		c0.147-0.265,0.347-0.491,0.598-0.683c0.251-0.19,0.548-0.34,0.891-0.449C41.224,80.086,41.589,80.031,41.979,80.031z
		 M43.779,77.92c-0.039,0.047-0.093,0.07-0.163,0.07h-3.393c-0.035,0-0.076-0.018-0.124-0.051c-0.047-0.035-0.071-0.088-0.071-0.156
		v-0.741c0-0.062,0.024-0.108,0.071-0.144c0.048-0.035,0.089-0.053,0.124-0.053h3.393c0.061,0,0.113,0.022,0.156,0.065
		s0.065,0.091,0.065,0.144v0.715C43.838,77.822,43.818,77.872,43.779,77.92z M47.784,88.971c-0.039,0.039-0.084,0.059-0.136,0.059
		h-1.105c-0.052,0-0.098-0.02-0.137-0.059c-0.039-0.039-0.059-0.08-0.059-0.125v-2.236c0-0.096-0.02-0.155-0.059-0.182
		c-0.039-0.025-0.102-0.039-0.188-0.039h-5.876c-0.043,0-0.084-0.016-0.124-0.045c-0.039-0.031-0.058-0.068-0.058-0.111v-0.896
		c0-0.052,0.02-0.093,0.058-0.123c0.039-0.029,0.08-0.046,0.124-0.046h6.747c0.329,0,0.557,0.069,0.683,0.208
		c0.125,0.139,0.188,0.373,0.188,0.702v2.769C47.842,88.891,47.822,88.932,47.784,88.971z M41.979,81.163
		c-0.408,0-0.744,0.099-1.008,0.292c-0.264,0.195-0.396,0.443-0.396,0.748c0,0.156,0.035,0.299,0.104,0.429
		c0.069,0.13,0.167,0.243,0.292,0.339s0.275,0.172,0.449,0.227c0.173,0.058,0.359,0.086,0.559,0.086
		c0.407,0,0.743-0.104,1.007-0.313c0.264-0.209,0.396-0.464,0.396-0.768c0-0.305-0.13-0.553-0.39-0.748
		C42.733,81.262,42.396,81.163,41.979,81.163z M49.747,81.579c-0.039,0.034-0.084,0.052-0.136,0.052h-1.755v2.834
		c0,0.122-0.057,0.184-0.169,0.184h-1.157c-0.113,0-0.169-0.065-0.169-0.195v-7.566c0-0.111,0.056-0.168,0.169-0.168h1.157
		c0.113,0,0.169,0.057,0.169,0.168v3.498h1.755c0.052,0,0.098,0.016,0.136,0.045c0.039,0.03,0.059,0.067,0.059,0.11v0.923
		C49.806,81.506,49.786,81.545,49.747,81.579z"/>
	<path fill="#FFFFFF" d="M53.34,81.8h1.08c0.121,0,0.182,0.065,0.182,0.195v3.614h1.457v-3.614c0-0.13,0.061-0.195,0.182-0.195
		h1.078c0.122,0,0.184,0.065,0.184,0.195v3.614h4.068c0.043,0,0.088,0.021,0.137,0.063c0.047,0.044,0.07,0.087,0.07,0.13v0.858
		c0,0.043-0.023,0.087-0.07,0.13c-0.049,0.044-0.094,0.064-0.137,0.064H50.402c-0.06,0-0.108-0.021-0.143-0.064
		c-0.035-0.043-0.052-0.087-0.052-0.13v-0.858c0-0.052,0.017-0.098,0.052-0.136c0.035-0.039,0.083-0.06,0.143-0.06h2.758v-3.613
		C53.16,81.865,53.22,81.8,53.34,81.8z M60.322,78.537c0,1.17-0.035,2.236-0.104,3.197c-0.07,0.963-0.166,1.765-0.287,2.404
		c-0.018,0.069-0.045,0.133-0.084,0.188c-0.039,0.058-0.094,0.081-0.162,0.071l-1.066-0.078c-0.07-0.008-0.111-0.034-0.123-0.077
		c-0.014-0.043-0.012-0.101,0.006-0.169c0.062-0.32,0.113-0.693,0.156-1.118s0.078-0.86,0.104-1.308
		c0.026-0.445,0.043-0.887,0.053-1.326c0.008-0.438,0.013-0.834,0.013-1.188c0-0.12-0.027-0.196-0.084-0.228
		c-0.058-0.031-0.146-0.045-0.267-0.045h-6.565c-0.043,0-0.086-0.016-0.129-0.047c-0.045-0.029-0.066-0.066-0.066-0.109V77.77
		c0-0.051,0.021-0.09,0.066-0.115c0.043-0.026,0.086-0.039,0.129-0.039h7.541c0.276,0,0.491,0.072,0.643,0.221
		C60.246,77.982,60.322,78.217,60.322,78.537z"/>
</g>
</svg>
