<?xml version="1.0" encoding="utf-8"?>
<!-- Generator: Adobe Illustrator 16.0.0, SVG Export Plug-In . SVG Version: 6.00 Build 0)  -->
<!DOCTYPE svg PUBLIC "-//W3C//DTD SVG 1.1//EN" "http://www.w3.org/Graphics/SVG/1.1/DTD/svg11.dtd">
<svg version="1.1" id="레이어_1" xmlns="http://www.w3.org/2000/svg" xmlns:xlink="http://www.w3.org/1999/xlink" x="0px"
	 y="0px" width="100px" height="100px" viewBox="0 0 100 100" enable-background="new 0 0 100 100" xml:space="preserve">
<g id="그룹_4963" transform="translate(-1343 -1049)">
	<rect id="사각형_1849" x="1363" y="1057.5" fill="none" width="60" height="60"/>
	<g id="그룹_4955" transform="translate(-105.957 1569.125)">
		<path id="패스_734" fill="#FFFFFF" d="M1490.154-461.833c0.497,0,0.9-0.403,0.9-0.899l0,0v-38.694c0-0.497-0.403-0.9-0.9-0.9
			l0,0h-7.649c-0.497,0-0.9,0.403-0.9,0.9l0,0v38.694c0,0.496,0.403,0.899,0.9,0.899l0,0H1490.154z M1483.405-500.526h5.849v36.893
			h-5.849V-500.526z"/>
		<path id="패스_735" fill="#FFFFFF" d="M1496-495.127h13.048c0.497,0,0.9-0.403,0.9-0.9l0,0v-5.4c0-0.497-0.403-0.9-0.9-0.9l0,0
			H1496c-0.497,0-0.9,0.403-0.9,0.9l0,0v5.4C1495.1-495.53,1495.503-495.127,1496-495.127L1496-495.127z M1496.9-500.527h11.249v3.6
			H1496.9V-500.527z"/>
		<path id="패스_736" fill="#FFFFFF" d="M1495.1-485.229c0,0.496,0.403,0.899,0.9,0.899l0,0h13.048c0.497,0,0.9-0.403,0.9-0.899
			l0,0v-5.4c0-0.497-0.403-0.9-0.9-0.9l0,0H1496c-0.497,0-0.9,0.403-0.9,0.9l0,0V-485.229z M1496.9-489.729h11.249v3.6H1496.9
			V-489.729z"/>
		<path id="패스_737" fill="#FFFFFF" d="M1495.1-474.432c0,0.498,0.403,0.9,0.9,0.9l0,0h13.048c0.497,0,0.9-0.402,0.9-0.9l0,0
			v-5.399c0-0.497-0.403-0.899-0.9-0.899l0,0H1496c-0.497,0-0.9,0.402-0.9,0.899l0,0V-474.432z M1496.9-478.932h11.249v3.601H1496.9
			V-478.932z"/>
		<path id="패스_738" fill="#FFFFFF" d="M1495.1-463.633c0,0.496,0.403,0.9,0.9,0.9l0,0h13.048c0.497,0,0.9-0.404,0.9-0.9l0,0
			v-5.4c0-0.496-0.403-0.9-0.9-0.9l0,0H1496c-0.497,0-0.9,0.404-0.9,0.9l0,0V-463.633z M1496.9-468.133h11.249v3.6H1496.9V-468.133z
			"/>
		<path id="패스_739" fill="#FFFFFF" d="M1523.9-503.226h-6.4c-0.521-3.112-3.211-5.395-6.367-5.4h-30.717
			c-3.567,0.004-6.458,2.896-6.462,6.463v39.879c0,0.497,0.403,0.899,0.9,0.899l0,0c0.497,0,0.9-0.402,0.9-0.899l0,0v-39.879
			c0.003-2.574,2.089-4.66,4.663-4.663h30.717c2.574,0.003,4.66,2.089,4.663,4.663v39.879c0,0.497,0.403,0.899,0.9,0.899l0,0
			c0.496,0,0.9-0.402,0.9-0.899l0,0v-16.646h6.299c0.498,0,0.899-0.403,0.899-0.9l0,0v-22.5
			C1524.795-502.824,1524.395-503.225,1523.9-503.226z M1523-480.727h-5.4v-20.7h5.4V-480.727z"/>
		<path id="패스_740" fill="#FFFFFF" d="M1523.9-457.784h-49.042c-0.497,0-0.9,0.403-0.9,0.899l0,0c0,0.498,0.403,0.9,0.9,0.9l0,0
			h49.042c0.496,0,0.898-0.402,0.898-0.9l0,0C1524.8-457.381,1524.396-457.784,1523.9-457.784L1523.9-457.784z"/>
	</g>
</g>
<g>
	<path fill="#FFFFFF" d="M49.851,87.007c-0.043,0.048-0.086,0.071-0.13,0.071H38.397c-0.052,0-0.096-0.021-0.13-0.064
		c-0.035-0.043-0.052-0.092-0.052-0.144v-0.819c0-0.052,0.017-0.098,0.052-0.137c0.035-0.038,0.078-0.059,0.13-0.059h4.914v-1.145
		c-0.424-0.052-0.808-0.141-1.15-0.268c-0.342-0.125-0.635-0.285-0.877-0.479c-0.243-0.194-0.431-0.416-0.565-0.663
		c-0.134-0.246-0.202-0.518-0.202-0.813c0-0.329,0.089-0.633,0.267-0.91c0.178-0.277,0.422-0.518,0.734-0.723
		c0.312-0.203,0.685-0.36,1.118-0.475c0.433-0.111,0.906-0.169,1.417-0.169c0.52,0,0.997,0.058,1.43,0.169
		c0.433,0.113,0.808,0.271,1.125,0.475c0.316,0.205,0.561,0.444,0.734,0.723c0.173,0.277,0.26,0.581,0.26,0.91
		c0,0.295-0.067,0.564-0.201,0.813c-0.135,0.247-0.323,0.469-0.565,0.663c-0.243,0.194-0.538,0.354-0.884,0.479
		c-0.347,0.127-0.728,0.216-1.144,0.268v1.145h4.914c0.043,0,0.086,0.021,0.13,0.064c0.043,0.044,0.065,0.087,0.065,0.13v0.819
		C49.916,86.913,49.894,86.959,49.851,87.007z M48.816,79.738c-0.039,0.039-0.084,0.06-0.137,0.06h-9.243
		c-0.044,0-0.087-0.021-0.13-0.063c-0.043-0.045-0.065-0.096-0.065-0.156v-0.754c0-0.045,0.024-0.088,0.072-0.131
		c0.047-0.043,0.093-0.064,0.136-0.064h9.23c0.052,0,0.098,0.02,0.137,0.059s0.059,0.086,0.059,0.138v0.767
		C48.875,79.65,48.855,79.7,48.816,79.738z M46.165,78.057c-0.039,0.043-0.089,0.064-0.149,0.064h-3.913
		c-0.035,0-0.076-0.018-0.123-0.053c-0.048-0.034-0.072-0.082-0.072-0.144V77.12c0-0.069,0.024-0.121,0.072-0.156
		c0.047-0.034,0.088-0.052,0.123-0.052h3.913c0.052,0,0.1,0.023,0.143,0.07c0.043,0.049,0.065,0.099,0.065,0.149v0.78
		C46.224,77.965,46.204,78.014,46.165,78.057z M44.052,81.318c-0.286,0-0.557,0.029-0.813,0.084
		c-0.256,0.058-0.477,0.138-0.663,0.24c-0.187,0.104-0.333,0.229-0.442,0.371c-0.108,0.143-0.163,0.301-0.163,0.475
		s0.054,0.332,0.163,0.476c0.108,0.144,0.255,0.267,0.442,0.37s0.407,0.186,0.663,0.24c0.255,0.057,0.526,0.085,0.813,0.085
		c0.287,0,0.557-0.028,0.813-0.085c0.255-0.057,0.477-0.137,0.663-0.24s0.336-0.229,0.448-0.37c0.113-0.144,0.169-0.302,0.169-0.476
		s-0.056-0.332-0.169-0.475c-0.112-0.144-0.262-0.267-0.448-0.371c-0.187-0.104-0.408-0.184-0.663-0.24
		C44.608,81.348,44.338,81.318,44.052,81.318z"/>
	<path fill="#FFFFFF" d="M56.662,82.548c-0.052,0.039-0.101,0.065-0.144,0.084c-0.285,0.078-0.621,0.146-1.007,0.202
		c-0.387,0.057-0.782,0.1-1.19,0.13c-0.405,0.03-0.808,0.05-1.2,0.06c-0.396,0.008-0.748,0.004-1.062-0.015
		c-0.623-0.034-0.937-0.347-0.937-0.937v-4.057c0-0.303,0.063-0.518,0.188-0.644c0.126-0.125,0.353-0.188,0.683-0.188h3.588
		c0.053,0,0.097,0.021,0.131,0.06c0.033,0.038,0.052,0.081,0.052,0.124v0.818c0,0.112-0.062,0.17-0.183,0.17h-2.717
		c-0.087,0-0.15,0.015-0.189,0.045c-0.037,0.029-0.057,0.094-0.057,0.188v0.871c0.424,0,0.848-0.002,1.273-0.007
		c0.424-0.005,0.832-0.022,1.221-0.06c0.035,0,0.07,0.01,0.104,0.026c0.035,0.017,0.053,0.048,0.053,0.091l0.014,0.768
		c0,0.07-0.014,0.123-0.039,0.162c-0.025,0.041-0.052,0.061-0.076,0.061c-0.416,0.044-0.842,0.07-1.273,0.085
		c-0.434,0.013-0.857,0.019-1.273,0.019v0.858c0,0.14,0.022,0.228,0.07,0.267c0.047,0.039,0.154,0.067,0.318,0.086
		c0.182,0.024,0.42,0.033,0.715,0.024s0.602-0.024,0.917-0.052c0.315-0.025,0.626-0.061,0.929-0.104
		c0.305-0.043,0.555-0.086,0.756-0.131c0.059-0.017,0.113-0.017,0.161,0c0.048,0.018,0.08,0.061,0.099,0.131l0.129,0.688
		C56.731,82.45,56.713,82.51,56.662,82.548z M61.726,88.971c-0.039,0.039-0.076,0.059-0.111,0.059h-7.526
		c-0.338,0-0.566-0.065-0.688-0.195c-0.122-0.13-0.184-0.334-0.184-0.611v-1.441c0-0.277,0.06-0.477,0.177-0.6
		C53.51,86.061,53.738,86,54.076,86h5.76c0.068,0,0.111-0.012,0.129-0.031c0.019-0.021,0.025-0.076,0.025-0.164v-0.338
		c0-0.095-0.008-0.15-0.025-0.169c-0.017-0.019-0.063-0.024-0.143-0.024h-6.447c-0.045,0-0.086-0.019-0.125-0.053
		c-0.039-0.035-0.059-0.074-0.059-0.117v-0.857c0-0.043,0.02-0.082,0.059-0.117c0.039-0.033,0.08-0.052,0.125-0.052h7.188
		c0.355,0,0.594,0.06,0.715,0.176s0.184,0.322,0.184,0.617v1.442c0,0.304-0.063,0.512-0.184,0.623
		c-0.121,0.113-0.359,0.17-0.715,0.17h-5.707c-0.078,0-0.125,0.012-0.143,0.033c-0.019,0.021-0.025,0.07-0.025,0.148v0.391
		c0,0.077,0.008,0.123,0.025,0.137c0.017,0.013,0.068,0.02,0.156,0.02h6.733c0.043,0,0.084,0.018,0.123,0.053
		c0.039,0.034,0.06,0.077,0.06,0.129v0.832C61.785,88.891,61.765,88.932,61.726,88.971z M57.78,76.925h1.066
		c0.11,0,0.168,0.058,0.168,0.169v6.071c0,0.121-0.058,0.183-0.168,0.183H57.78c-0.12,0-0.182-0.062-0.182-0.183v-2.522h-1.443
		c-0.053,0-0.098-0.017-0.137-0.052c-0.039-0.034-0.06-0.077-0.06-0.13v-0.857c0-0.043,0.021-0.08,0.06-0.11
		s0.084-0.046,0.137-0.046h1.443v-2.354C57.599,76.98,57.66,76.925,57.78,76.925z M60.17,76.717h1.105
		c0.043,0,0.086,0.018,0.125,0.053s0.059,0.074,0.059,0.117v6.422c0,0.043-0.02,0.082-0.059,0.116
		c-0.039,0.035-0.082,0.052-0.125,0.052h-1.117c-0.121,0-0.182-0.056-0.182-0.168v-6.422C59.978,76.773,60.043,76.717,60.17,76.717z
		"/>
</g>
</svg>
