<?xml version="1.0" encoding="utf-8"?>
<!-- Generator: Adobe Illustrator 16.0.0, SVG Export Plug-In . SVG Version: 6.00 Build 0)  -->
<!DOCTYPE svg PUBLIC "-//W3C//DTD SVG 1.1//EN" "http://www.w3.org/Graphics/SVG/1.1/DTD/svg11.dtd">
<svg version="1.1" id="레이어_1" xmlns="http://www.w3.org/2000/svg" xmlns:xlink="http://www.w3.org/1999/xlink" x="0px"
	 y="0px" width="100px" height="100px" viewBox="0 0 100 100" enable-background="new 0 0 100 100" xml:space="preserve">
<g id="그룹_4962" transform="translate(-1225 -1049)">
	<rect id="사각형_1847" x="1245" y="1057.5" fill="none" width="60" height="60"/>
	<g id="그룹_4954" transform="translate(-70.341 1570.356)">
		<path id="패스_732" fill="#FFFFFF" d="M1370.349-503.317c-2.854-2.91-6.758-4.546-10.833-4.539
			c-4.069-0.008-7.97,1.624-10.819,4.527l-3.109,3.028l-3.1-3.016c-2.853-2.91-6.758-4.546-10.833-4.539
			c-4.075-0.007-7.98,1.629-10.833,4.539c-3.306,3.342-4.919,8.003-4.386,12.674c0.053,0.494,0.496,0.854,0.99,0.801
			c0.001,0,0.002,0,0.003,0c0.494-0.053,0.853-0.496,0.801-0.99c0-0.001,0-0.002,0-0.004c-0.473-4.131,0.954-8.254,3.878-11.21
			c2.516-2.565,5.959-4.007,9.552-4c3.599-0.005,7.048,1.443,9.563,4.016l3.737,3.639c0.35,0.34,0.906,0.34,1.256,0l3.75-3.651
			c2.516-2.565,5.96-4.007,9.553-4c3.594-0.007,7.036,1.435,9.553,4c5.274,5.375,5.274,13.985,0,19.361l-23.482,23.758
			l-19.745-19.979c-0.35-0.354-0.919-0.356-1.272-0.007l0,0c-0.353,0.35-0.357,0.918-0.008,1.271l20.386,20.625
			c0.169,0.172,0.399,0.268,0.64,0.27c0.241-0.002,0.471-0.098,0.642-0.27l24.123-24.406
			C1376.322-487.497,1376.32-497.238,1370.349-503.317z"/>
		<path id="패스_733" fill="#FFFFFF" d="M1330.972-484.961l1.787-2.086l4.811,10.424c0.149,0.336,0.49,0.543,0.856,0.522
			c0.365-0.016,0.684-0.249,0.808-0.593l4.948-13.7l5.5,17.271c0.104,0.331,0.392,0.572,0.736,0.619
			c0.04,0.006,0.079,0.008,0.12,0.008c0.305,0,0.589-0.153,0.755-0.408l6.749-10.348c0.271-0.416,0.154-0.975-0.262-1.246
			s-0.975-0.153-1.246,0.263l-5.713,8.76l-5.725-17.989c-0.117-0.367-0.455-0.62-0.84-0.627c-0.386-0.008-0.733,0.231-0.864,0.594
			l-5.1,14.135l-4.48-9.707c-0.128-0.278-0.39-0.474-0.694-0.515c-0.304-0.043-0.608,0.072-0.807,0.306l-2.43,2.835h-9.034
			c-0.497,0-0.9,0.402-0.9,0.9l0,0c0,0.496,0.403,0.899,0.9,0.899l0,0h9.448C1330.557-484.647,1330.803-484.763,1330.972-484.961z"
			/>
	</g>
</g>
<g>
	<path fill="#FFFFFF" d="M38.183,85.199c0.035-0.039,0.083-0.059,0.143-0.059c0.615,0.018,1.265,0.018,1.95,0
		c0.684-0.018,1.367-0.043,2.047-0.078c0.68-0.035,1.341-0.08,1.982-0.137c0.641-0.057,1.23-0.119,1.768-0.188
		c0.043-0.01,0.093-0.008,0.149,0.006c0.056,0.014,0.089,0.055,0.098,0.124l0.078,0.845c0.009,0.068-0.006,0.124-0.045,0.163
		c-0.039,0.038-0.08,0.063-0.124,0.071c-0.485,0.068-1.053,0.134-1.703,0.193c-0.65,0.063-1.333,0.113-2.048,0.156
		c-0.715,0.044-1.432,0.076-2.151,0.098c-0.719,0.022-1.387,0.028-2.002,0.021c-0.061,0-0.108-0.021-0.143-0.06
		c-0.035-0.039-0.052-0.084-0.052-0.137v-0.884C38.131,85.284,38.148,85.238,38.183,85.199z M42.057,77.471
		c0.442,0,0.856,0.072,1.242,0.215c0.385,0.144,0.721,0.348,1.007,0.611c0.286,0.264,0.511,0.583,0.676,0.955
		c0.165,0.373,0.247,0.784,0.247,1.234c0,0.459-0.083,0.873-0.247,1.242c-0.164,0.367-0.39,0.681-0.676,0.936
		c-0.286,0.256-0.622,0.453-1.007,0.592c-0.386,0.139-0.804,0.208-1.255,0.208c-0.442,0-0.854-0.069-1.235-0.208
		c-0.381-0.139-0.713-0.336-0.995-0.592c-0.282-0.255-0.505-0.566-0.669-0.936s-0.247-0.783-0.247-1.242
		c0-0.45,0.083-0.861,0.247-1.234c0.165-0.372,0.388-0.691,0.669-0.955c0.282-0.266,0.615-0.469,1.001-0.611
		C41.201,77.544,41.615,77.471,42.057,77.471z M42.057,78.706c-0.494,0-0.901,0.16-1.222,0.479c-0.32,0.321-0.481,0.756-0.481,1.301
		c0,0.556,0.161,0.992,0.481,1.313c0.321,0.321,0.728,0.481,1.222,0.481c0.511,0,0.927-0.16,1.248-0.481
		c0.32-0.319,0.481-0.758,0.481-1.313c0-0.545-0.161-0.979-0.481-1.301C42.984,78.865,42.568,78.706,42.057,78.706z M48.427,88.885
		c0,0.112-0.061,0.17-0.182,0.17h-1.144c-0.043,0-0.084-0.016-0.124-0.045c-0.04-0.031-0.059-0.072-0.059-0.125V76.887
		c0-0.043,0.02-0.082,0.059-0.117s0.08-0.053,0.124-0.053h1.144c0.121,0,0.182,0.057,0.182,0.17V88.885z"/>
	<path fill="#FFFFFF" d="M52.809,83.764c-0.191,0-0.348-0.014-0.469-0.039c-0.122-0.025-0.217-0.074-0.287-0.144
		c-0.068-0.069-0.115-0.158-0.143-0.267c-0.025-0.108-0.039-0.25-0.039-0.424v-2.08c0-0.172,0.014-0.313,0.039-0.422
		c0.025-0.107,0.074-0.195,0.143-0.26c0.07-0.064,0.165-0.107,0.287-0.131c0.121-0.021,0.277-0.032,0.469-0.032h5.693
		c0.086,0,0.141-0.011,0.162-0.032c0.021-0.021,0.031-0.08,0.031-0.176v-1.001c0-0.095-0.01-0.149-0.031-0.161
		c-0.021-0.015-0.076-0.021-0.162-0.021h-6.41c-0.043,0-0.082-0.021-0.115-0.06c-0.035-0.039-0.053-0.08-0.053-0.123v-0.871
		c0-0.043,0.018-0.082,0.053-0.117c0.033-0.034,0.072-0.053,0.115-0.053h7.125c0.363,0,0.609,0.06,0.74,0.176
		c0.131,0.117,0.195,0.346,0.195,0.684v2.094c0,0.338-0.064,0.564-0.195,0.682c-0.131,0.119-0.377,0.177-0.74,0.177H53.51
		c-0.087,0-0.139,0.009-0.156,0.026c-0.018,0.017-0.025,0.068-0.025,0.154v1.016c0,0.095,0.011,0.152,0.031,0.175
		c0.021,0.022,0.076,0.032,0.164,0.032h6.732c0.043,0,0.086,0.016,0.125,0.045c0.037,0.031,0.057,0.068,0.057,0.111v0.871
		c0,0.043-0.021,0.082-0.063,0.116c-0.043,0.035-0.082,0.052-0.117,0.052h-1.688v1.963h3.106c0.043,0,0.086,0.024,0.129,0.072
		c0.043,0.049,0.066,0.094,0.066,0.137v0.818c0,0.044-0.023,0.087-0.066,0.13c-0.043,0.044-0.086,0.065-0.129,0.065H50.351
		c-0.052,0-0.096-0.021-0.13-0.065c-0.035-0.043-0.052-0.086-0.052-0.13v-0.818c0-0.053,0.017-0.101,0.052-0.144
		c0.035-0.043,0.078-0.065,0.13-0.065h3.106v-1.963h-0.648V83.764z M57.098,85.727v-1.963h-2.172v1.963H57.098z"/>
</g>
</svg>
