<?xml version="1.0" encoding="utf-8"?>
<!-- Generator: Adobe Illustrator 16.0.0, SVG Export Plug-In . SVG Version: 6.00 Build 0)  -->
<!DOCTYPE svg PUBLIC "-//W3C//DTD SVG 1.1//EN" "http://www.w3.org/Graphics/SVG/1.1/DTD/svg11.dtd">
<svg version="1.1" id="레이어_1" xmlns="http://www.w3.org/2000/svg" xmlns:xlink="http://www.w3.org/1999/xlink" x="0px"
	 y="0px" width="100px" height="100px" viewBox="0 0 100 100" enable-background="new 0 0 100 100" xml:space="preserve">
<g id="Group_5402" transform="translate(558.47 59.5)">
	<g id="Group_5401" transform="translate(318 992.5)">
		
			<rect id="Rectangle_2474" x="-851" y="-1040" fill="none" stroke="#FFFFFF" stroke-width="2" stroke-linecap="round" stroke-linejoin="round" width="49.06" height="34.346"/>
		
			<rect id="Rectangle_2475" x="-846" y="-1035" fill="none" stroke="#FFFFFF" stroke-width="2" stroke-linecap="round" stroke-linejoin="round" width="39.06" height="24.346"/>
		<g id="Group_5400" transform="translate(6.863)">
			<path id="Path_2467" fill="none" stroke="#FFFFFF" stroke-width="2" stroke-linecap="round" stroke-linejoin="round" d="
				M-851-1040.5"/>
			<path id="Path_2468" fill="none" stroke="#FFFFFF" stroke-width="2" stroke-linecap="round" stroke-linejoin="round" d="
				M-815.666-1040.5"/>
		</g>
		<path id="Rectangle_2476" fill="none" stroke="#FFFFFF" stroke-width="2" stroke-linecap="round" stroke-linejoin="round" d="
			M-838.459-1022.655h10c2.209,0,4,1.791,4,4v4c0,2.209-1.791,4-4,4h-10c-2.209,0-4-1.791-4-4v-4
			C-842.459-1020.864-840.668-1022.655-838.459-1022.655z"/>
		
			<line id="Line_467" fill="none" stroke="#FFFFFF" stroke-width="2" stroke-linecap="round" stroke-linejoin="round" x1="-836.621" y1="-1010.654" x2="-836.621" y2="-1022.655"/>
		
			<line id="Line_468" fill="none" stroke="#FFFFFF" stroke-width="2" stroke-linecap="round" stroke-linejoin="round" x1="-831.546" y1="-1010.654" x2="-831.546" y2="-1022.655"/>
	</g>
	
		<line id="Line_469" fill="none" stroke="#FFFFFF" stroke-width="2" stroke-linecap="round" stroke-linejoin="round" x1="-514.944" y1="-13.154" x2="-525.309" y2="4.973"/>
	
		<line id="Line_470" fill="none" stroke="#FFFFFF" stroke-width="2" stroke-linecap="round" stroke-linejoin="round" x1="-501.806" y1="-13.154" x2="-491.441" y2="4.973"/>
</g>
<g>
	<path fill="#FFFFFF" d="M45.897,79.559c-0.039,0.039-0.084,0.059-0.136,0.059h-6.89c-0.052,0-0.1-0.021-0.143-0.064
		c-0.043-0.044-0.065-0.092-0.065-0.144V78.68c0-0.043,0.024-0.089,0.072-0.136c0.047-0.048,0.097-0.071,0.149-0.071h6.877
		c0.052,0,0.098,0.021,0.136,0.064c0.039,0.043,0.059,0.091,0.059,0.143v0.741C45.957,79.473,45.937,79.52,45.897,79.559z
		 M42.42,80.031c0.39,0,0.758,0.055,1.105,0.162c0.346,0.109,0.646,0.259,0.897,0.449s0.45,0.418,0.598,0.683
		c0.147,0.265,0.221,0.558,0.221,0.878s-0.074,0.615-0.221,0.884s-0.349,0.501-0.604,0.694c-0.255,0.195-0.555,0.348-0.897,0.455
		c-0.342,0.109-0.714,0.164-1.112,0.164c-0.39,0-0.754-0.055-1.092-0.164c-0.338-0.107-0.633-0.26-0.884-0.455
		c-0.251-0.193-0.451-0.426-0.598-0.694s-0.221-0.563-0.221-0.884c0-0.321,0.073-0.613,0.221-0.878
		c0.147-0.265,0.347-0.491,0.598-0.683c0.251-0.19,0.548-0.34,0.891-0.449C41.665,80.086,42.03,80.031,42.42,80.031z M44.22,77.92
		c-0.039,0.047-0.093,0.07-0.163,0.07h-3.393c-0.035,0-0.076-0.018-0.124-0.051c-0.047-0.035-0.071-0.088-0.071-0.156v-0.741
		c0-0.062,0.024-0.108,0.071-0.144c0.048-0.035,0.089-0.053,0.124-0.053h3.393c0.061,0,0.113,0.022,0.156,0.065
		s0.065,0.091,0.065,0.144v0.715C44.279,77.822,44.259,77.872,44.22,77.92z M48.225,88.971c-0.039,0.039-0.084,0.059-0.136,0.059
		h-1.105c-0.052,0-0.098-0.02-0.137-0.059c-0.039-0.039-0.059-0.08-0.059-0.125v-2.236c0-0.096-0.02-0.155-0.059-0.182
		c-0.039-0.025-0.102-0.039-0.188-0.039h-5.876c-0.043,0-0.084-0.016-0.124-0.045c-0.039-0.031-0.058-0.068-0.058-0.111v-0.896
		c0-0.052,0.02-0.093,0.058-0.123c0.039-0.029,0.08-0.046,0.124-0.046h6.747c0.329,0,0.557,0.069,0.683,0.208
		c0.125,0.139,0.188,0.373,0.188,0.702v2.769C48.283,88.891,48.263,88.932,48.225,88.971z M42.42,81.163
		c-0.408,0-0.744,0.099-1.008,0.292c-0.264,0.195-0.396,0.443-0.396,0.748c0,0.156,0.035,0.299,0.104,0.429
		c0.069,0.13,0.167,0.243,0.292,0.339s0.275,0.172,0.449,0.227c0.173,0.058,0.359,0.086,0.559,0.086
		c0.407,0,0.743-0.104,1.007-0.313c0.264-0.209,0.396-0.464,0.396-0.768c0-0.305-0.13-0.553-0.39-0.748
		C43.174,81.262,42.836,81.163,42.42,81.163z M50.188,81.579c-0.039,0.034-0.084,0.052-0.136,0.052h-1.755v2.834
		c0,0.122-0.057,0.184-0.169,0.184H46.97c-0.113,0-0.169-0.065-0.169-0.195v-7.566c0-0.111,0.056-0.168,0.169-0.168h1.157
		c0.113,0,0.169,0.057,0.169,0.168v3.498h1.755c0.052,0,0.098,0.016,0.136,0.045c0.039,0.03,0.059,0.067,0.059,0.11v0.923
		C50.247,81.506,50.227,81.545,50.188,81.579z"/>
	<path fill="#FFFFFF" d="M59.066,83.027c-0.039,0.039-0.08,0.068-0.123,0.086c-0.242,0.043-0.512,0.08-0.807,0.109
		c-0.295,0.03-0.598,0.059-0.909,0.084c-0.312,0.026-0.622,0.051-0.931,0.072c-0.308,0.021-0.596,0.036-0.863,0.045v1.872
		c0,0.052-0.02,0.099-0.059,0.138s-0.084,0.059-0.138,0.059h-1.079c-0.052,0-0.097-0.02-0.136-0.059s-0.06-0.086-0.06-0.138v-1.769
		c-0.26,0.01-0.526,0.016-0.799,0.021s-0.541,0.011-0.801,0.021c-0.26,0.009-0.507,0.013-0.74,0.013
		c-0.234,0-0.438-0.004-0.611-0.013c-0.053,0-0.096-0.021-0.131-0.065c-0.033-0.043-0.051-0.091-0.051-0.144v-0.807
		c0-0.052,0.018-0.098,0.051-0.136c0.035-0.039,0.078-0.06,0.131-0.06c0.599,0,1.25-0.006,1.957-0.02
		c0.705-0.014,1.41-0.035,2.111-0.064c0.702-0.03,1.379-0.069,2.028-0.117c0.649-0.047,1.214-0.105,1.69-0.176
		c0.043-0.008,0.088,0,0.137,0.025c0.047,0.025,0.074,0.064,0.084,0.117l0.091,0.74C59.121,82.936,59.105,82.988,59.066,83.027z
		 M54.771,76.898c0.442,0,0.847,0.063,1.216,0.188c0.367,0.125,0.684,0.294,0.949,0.507c0.264,0.213,0.469,0.461,0.617,0.747
		c0.146,0.286,0.221,0.591,0.221,0.91c0,0.338-0.074,0.653-0.221,0.949c-0.148,0.295-0.354,0.548-0.617,0.761
		c-0.266,0.212-0.582,0.381-0.949,0.508c-0.369,0.125-0.773,0.188-1.216,0.188s-0.845-0.063-1.209-0.188
		c-0.364-0.127-0.679-0.296-0.942-0.508c-0.265-0.213-0.469-0.466-0.611-0.761c-0.142-0.296-0.215-0.611-0.215-0.949
		c0-0.319,0.072-0.624,0.215-0.91c0.144-0.286,0.348-0.534,0.611-0.747s0.578-0.382,0.942-0.507S54.328,76.898,54.771,76.898z
		 M61.276,88.794c-0.039,0.026-0.08,0.039-0.123,0.039h-7.372c-0.398,0-0.665-0.069-0.8-0.208c-0.134-0.139-0.201-0.377-0.201-0.715
		v-1.859c0-0.043,0.021-0.084,0.06-0.123s0.08-0.059,0.123-0.059h1.119c0.051,0,0.096,0.02,0.135,0.059s0.06,0.08,0.06,0.123v1.326
		c0,0.087,0.017,0.143,0.052,0.169s0.1,0.039,0.195,0.039h6.631c0.043,0,0.084,0.019,0.123,0.052
		c0.039,0.035,0.059,0.074,0.059,0.117v0.924C61.336,88.729,61.316,88.768,61.276,88.794z M54.771,78.043
		c-0.208,0-0.407,0.032-0.599,0.098c-0.19,0.064-0.355,0.151-0.494,0.26c-0.139,0.109-0.248,0.238-0.332,0.391
		c-0.082,0.152-0.122,0.314-0.122,0.488c0,0.182,0.04,0.349,0.122,0.5c0.084,0.152,0.193,0.281,0.332,0.391s0.304,0.193,0.494,0.26
		c0.19,0.064,0.391,0.098,0.599,0.098c0.216,0,0.418-0.032,0.604-0.098c0.186-0.064,0.352-0.15,0.493-0.26s0.257-0.238,0.339-0.391
		c0.082-0.151,0.123-0.318,0.123-0.5c0-0.174-0.041-0.336-0.123-0.488c-0.082-0.15-0.195-0.281-0.339-0.391
		c-0.143-0.108-0.309-0.194-0.493-0.26C55.188,78.075,54.985,78.043,54.771,78.043z M60.881,86.428h-1.157
		c-0.112,0-0.169-0.061-0.169-0.182v-1.184h-2.223c-0.045,0-0.086-0.018-0.125-0.053c-0.039-0.033-0.059-0.072-0.059-0.117v-0.817
		c0-0.044,0.02-0.08,0.059-0.11c0.039-0.029,0.08-0.046,0.125-0.046h2.223v-7.032c0-0.113,0.057-0.17,0.169-0.17h1.157
		c0.11,0,0.168,0.057,0.168,0.17v9.359C61.049,86.367,60.991,86.428,60.881,86.428z"/>
</g>
</svg>
