<?xml version="1.0" encoding="utf-8"?>
<!-- Generator: Adobe Illustrator 16.0.0, SVG Export Plug-In . SVG Version: 6.00 Build 0)  -->
<!DOCTYPE svg PUBLIC "-//W3C//DTD SVG 1.1//EN" "http://www.w3.org/Graphics/SVG/1.1/DTD/svg11.dtd">
<svg version="1.1" id="레이어_1" xmlns="http://www.w3.org/2000/svg" xmlns:xlink="http://www.w3.org/1999/xlink" x="0px"
	 y="0px" width="100px" height="100px" viewBox="0 0 100 100" enable-background="new 0 0 100 100" xml:space="preserve">
<g id="그룹_4960" transform="translate(-989 -1049)">
	<rect id="사각형_1842" x="1009" y="1057.5" fill="none" width="60" height="60"/>
	<path id="패스_741" fill="#FFFFFF" d="M1064.84,1065.224h-32.45v-4.724h-13.272v4.724H1014v9.9h5.118v30.146h-5.062v9h29.188v-9
		h-10.854v-30.146h12.2v5.399h6.301v4.646c-1.533,0.449-2.587,1.855-2.588,3.453c0,0.846,0.299,1.666,0.844,2.313
		c-2.549,1.051-4.215,3.533-4.219,6.291c0.004,3.758,3.049,6.801,6.805,6.805c3.757-0.006,6.798-3.049,6.802-6.805v-0.899h-1.802
		v0.899c-0.002,2.764-2.241,5.004-5.006,5.006c-2.763-0.004-5.002-2.242-5.004-5.006c0.006-2.761,2.243-4.996,5.004-5h0.9v-0.074
		c1.671-0.347,2.869-1.818,2.869-3.524c-0.001-1.685-1.169-3.142-2.813-3.511v-4.588h6.748v-5.4h5.399L1064.84,1065.224z
		 M1053.705,1088.624c0,0.994-0.807,1.8-1.801,1.8c-0.993,0-1.799-0.806-1.799-1.8s0.806-1.8,1.799-1.8l0,0
		c0.992,0,1.799,0.803,1.801,1.796V1088.624z M1029.993,1073.097l-9.076,9.076v-18.151L1029.993,1073.097z M1020.917,1085.618
		l9.076,9.075l-9.076,9.077V1085.618z M1021.74,1083.896l8.85-8.852v17.7L1021.74,1083.896z M1030.59,1071.15l-8.85-8.851h8.85
		V1071.15z M1015.799,1073.322v-6.3h3.319v6.3H1015.799z M1041.445,1107.066v5.398h-25.589v-5.398H1041.445L1041.445,1107.066z
		 M1021.965,1105.266l8.625-8.625v8.625H1021.965z M1057.643,1078.72h-11.248v-3.6h11.248V1078.72z M1063.042,1073.32h-30.652v-6.3
		h30.651L1063.042,1073.32z"/>
</g>
<g>
	<path fill="#FFFFFF" d="M39.184,84.219l-0.325-0.664c-0.035-0.068-0.046-0.139-0.033-0.207c0.013-0.07,0.067-0.125,0.163-0.17
		c1.135-0.52,2.045-1.123,2.73-1.813c0.685-0.688,1.152-1.453,1.404-2.295c0.043-0.139,0.065-0.233,0.065-0.285
		c0-0.053-0.083-0.078-0.247-0.078h-3.51c-0.052,0-0.093-0.02-0.124-0.059c-0.031-0.039-0.045-0.084-0.045-0.137v-0.871
		c0-0.121,0.061-0.183,0.182-0.183h4.368c0.381,0,0.648,0.062,0.8,0.183c0.151,0.121,0.228,0.32,0.228,0.598
		c0,0.043-0.005,0.101-0.013,0.17c-0.009,0.068-0.02,0.141-0.033,0.214c-0.013,0.073-0.026,0.14-0.039,0.194
		c-0.013,0.058-0.024,0.099-0.033,0.125c-0.355,1.229-0.949,2.291-1.781,3.185s-1.941,1.63-3.328,2.21
		C39.405,84.422,39.262,84.383,39.184,84.219z M48.966,88.794c-0.039,0.026-0.084,0.039-0.137,0.039h-6.76
		c-0.39,0-0.652-0.069-0.787-0.208c-0.135-0.139-0.202-0.377-0.202-0.715v-2.86c0-0.043,0.02-0.084,0.059-0.122
		c0.039-0.039,0.08-0.06,0.124-0.06h1.118c0.052,0,0.097,0.021,0.136,0.06c0.039,0.038,0.059,0.079,0.059,0.122v2.327
		c0,0.087,0.017,0.143,0.052,0.169c0.034,0.026,0.095,0.039,0.182,0.039h6.02c0.043,0,0.086,0.019,0.13,0.052
		c0.043,0.035,0.065,0.074,0.065,0.117v0.924C49.025,88.729,49.005,88.768,48.966,88.794z M44.618,81.605v-0.924
		c0-0.043,0.02-0.08,0.059-0.111c0.039-0.029,0.08-0.045,0.124-0.045h2.34v-3.641c0-0.111,0.056-0.169,0.169-0.169h1.157
		c0.112,0,0.169,0.058,0.169,0.169v8.424c0,0.113-0.057,0.17-0.169,0.17H47.31c-0.113,0-0.169-0.057-0.169-0.17V81.76h-2.34
		c-0.043,0-0.084-0.015-0.124-0.045C44.637,81.686,44.618,81.648,44.618,81.605z"/>
	<path fill="#FFFFFF" d="M51.378,83.178l-0.521-0.623c-0.052-0.07-0.076-0.14-0.071-0.209c0.005-0.068,0.05-0.125,0.138-0.168
		c1.021-0.564,1.766-1.264,2.229-2.101c0.464-0.836,0.695-1.849,0.695-3.035c0-0.062,0.024-0.108,0.072-0.144
		c0.047-0.035,0.093-0.053,0.137-0.053l1.117,0.053c0.112,0,0.17,0.064,0.17,0.195c0,0.711-0.087,1.391-0.26,2.041
		c0.138,0.303,0.312,0.59,0.52,0.857s0.435,0.516,0.676,0.74c0.242,0.226,0.494,0.422,0.754,0.592
		c0.261,0.169,0.509,0.306,0.741,0.41c0.147,0.061,0.173,0.168,0.078,0.324l-0.442,0.701c-0.086,0.131-0.198,0.165-0.338,0.104
		c-0.528-0.225-1.01-0.532-1.442-0.922c-0.435-0.392-0.814-0.828-1.145-1.313c-0.614,1.101-1.513,1.954-2.689,2.562
		C51.603,83.305,51.464,83.3,51.378,83.178z M61.12,88.971c-0.039,0.039-0.074,0.059-0.109,0.059h-7.021
		c-0.338,0-0.566-0.065-0.688-0.195c-0.122-0.13-0.182-0.334-0.182-0.611v-1.56c0-0.276,0.058-0.478,0.175-0.599
		s0.345-0.183,0.683-0.183h5.252c0.069,0,0.112-0.013,0.13-0.038s0.026-0.078,0.026-0.156v-0.441c0-0.096-0.014-0.154-0.039-0.176
		c-0.026-0.021-0.078-0.032-0.156-0.032h-5.915c-0.044,0-0.085-0.017-0.124-0.046c-0.039-0.03-0.059-0.066-0.059-0.11v-0.856
		c0-0.045,0.02-0.086,0.059-0.125s0.08-0.059,0.124-0.059h6.684c0.354,0,0.592,0.061,0.707,0.184
		c0.116,0.121,0.176,0.328,0.176,0.623v1.547c0,0.304-0.06,0.512-0.176,0.625c-0.115,0.111-0.353,0.168-0.707,0.168h-5.213
		c-0.07,0-0.113,0.012-0.132,0.033c-0.018,0.021-0.024,0.066-0.024,0.137v0.52c0,0.078,0.013,0.125,0.039,0.137
		c0.024,0.014,0.078,0.021,0.154,0.021h6.215c0.043,0,0.084,0.019,0.123,0.052c0.038,0.035,0.059,0.078,0.059,0.131v0.832
		C61.179,88.891,61.158,88.932,61.12,88.971z M56.862,79.967v-0.884c0-0.043,0.021-0.08,0.06-0.11
		c0.039-0.029,0.085-0.045,0.137-0.045h2.301v-2.041c0-0.113,0.057-0.17,0.169-0.17h1.156c0.113,0,0.17,0.057,0.17,0.17v6.188
		c0,0.043-0.018,0.084-0.053,0.123c-0.033,0.039-0.072,0.059-0.117,0.059h-1.156c-0.043,0-0.082-0.02-0.116-0.059
		c-0.035-0.039-0.053-0.08-0.053-0.123v-2.951h-2.301c-0.052,0-0.098-0.016-0.137-0.046S56.862,80.012,56.862,79.967z"/>
</g>
</svg>
