<?xml version="1.0" encoding="utf-8"?>
<!-- Generator: Adobe Illustrator 16.0.0, SVG Export Plug-In . SVG Version: 6.00 Build 0)  -->
<!DOCTYPE svg PUBLIC "-//W3C//DTD SVG 1.1//EN" "http://www.w3.org/Graphics/SVG/1.1/DTD/svg11.dtd">
<svg version="1.1" id="레이어_1" xmlns="http://www.w3.org/2000/svg" xmlns:xlink="http://www.w3.org/1999/xlink" x="0px"
	 y="0px" width="100px" height="100px" viewBox="0 0 100 100" enable-background="new 0 0 100 100" xml:space="preserve">
<g id="Group_5398" transform="translate(-517 -1049)">
	<rect id="Rectangle_1848" x="537" y="1057.5" fill="none" width="60" height="60"/>
	<path id="Path_2466" fill="#FFFFFF" d="M592.584,1086.314h-2.893c-0.513-11.913-10.053-21.454-21.965-21.965v-2.893
		c0-0.528-0.429-0.956-0.957-0.956s-0.956,0.428-0.956,0.956v2.893c-11.913,0.511-21.455,10.052-21.966,21.965h-2.892
		c-0.528,0-0.956,0.428-0.956,0.955c0,0.528,0.428,0.957,0.956,0.957h2.892c0.511,11.913,10.053,21.454,21.966,21.965v2.893
		c0,0.527,0.428,0.956,0.956,0.956s0.957-0.429,0.957-0.956v-2.893c11.914-0.512,21.455-10.053,21.965-21.965h2.894
		c0.528,0,0.956-0.429,0.956-0.957C593.541,1086.742,593.113,1086.314,592.584,1086.314L592.584,1086.314z M587.779,1086.314h-1.771
		c-0.5-9.883-8.398-17.783-18.281-18.284v-1.77C578.584,1066.769,587.271,1075.457,587.779,1086.314L587.779,1086.314z
		 M580.754,1083.757c-0.527,0-0.956,0.429-0.956,0.956v1.6h-5.657v-0.699c0-0.528-0.429-0.957-0.957-0.957
		c-0.526,0-0.955,0.429-0.955,0.957l0,0v0.699h-1.918c-0.527,0-0.957,0.429-0.957,0.957c0,0.527,0.43,0.955,0.957,0.955l0,0h1.916
		v0.701c0,0.527,0.43,0.955,0.957,0.955s0.955-0.428,0.955-0.955v-0.701h5.658v1.601c0,0.528,0.428,0.956,0.956,0.956
		s0.956-0.428,0.956-0.956v-1.601h2.387c-0.494,8.828-7.543,15.876-16.371,16.371v-2.386h1.602c0.527,0,0.956-0.429,0.956-0.956
		s-0.429-0.956-0.956-0.956h-1.602v-5.655h0.701c0.527,0,0.955-0.428,0.955-0.955c0-0.528-0.428-0.957-0.955-0.957h-0.701v-1.918
		c0-0.527-0.428-0.955-0.956-0.955s-0.956,0.428-0.956,0.955l0,0v1.918h-0.7c-0.528,0-0.956,0.429-0.956,0.957
		c0,0.527,0.428,0.955,0.956,0.955h0.7v5.658h-1.6c-0.528,0-0.956,0.428-0.956,0.957c0,0.527,0.428,0.955,0.956,0.955h1.6v2.387
		c-8.829-0.494-15.876-7.543-16.371-16.371h2.385v1.6c0,0.527,0.428,0.956,0.956,0.956c0.528,0,0.956-0.429,0.956-0.956v-1.6h5.658
		v0.699c0,0.528,0.428,0.957,0.956,0.957c0.528,0,0.956-0.429,0.956-0.957v-0.699h1.918c0.528,0,0.956-0.428,0.956-0.957
		c0-0.527-0.428-0.955-0.956-0.955h-1.918v-0.7c0-0.528-0.428-0.956-0.956-0.956c-0.528,0-0.956,0.428-0.956,0.956v0.7h-5.658v-1.6
		c0-0.529-0.428-0.957-0.956-0.957c-0.528,0-0.956,0.428-0.956,0.957v1.6h-2.386c0.494-8.831,7.543-15.879,16.373-16.374v2.386h-1.6
		c-0.528,0-0.956,0.428-0.956,0.956c0,0.528,0.428,0.956,0.956,0.956h1.6v5.657h-0.7c-0.528,0-0.956,0.429-0.956,0.957
		c0,0.527,0.428,0.955,0.956,0.955l0,0h0.7v1.92c0,0.527,0.428,0.955,0.956,0.955c0.528,0,0.957-0.428,0.957-0.955v-1.92h0.699
		c0.528,0,0.956-0.428,0.956-0.955c0-0.528-0.428-0.957-0.956-0.957h-0.699v-5.655h1.601c0.526,0,0.956-0.428,0.956-0.956
		c0-0.528-0.43-0.956-0.956-0.956l0,0h-1.601v-2.388c8.828,0.495,15.875,7.543,16.369,16.372h-2.386v-1.601
		c0.001-0.528-0.426-0.956-0.954-0.958C580.756,1083.756,580.755,1083.756,580.754,1083.757L580.754,1083.757z M565.814,1066.257
		v1.77c-9.886,0.498-17.789,8.401-18.287,18.288h-1.771c0.508-10.86,9.198-19.548,20.058-20.053V1066.257z M545.76,1088.223h1.767
		c0.5,9.883,8.4,17.783,18.283,18.282v1.771c-10.855-0.508-19.542-9.192-20.05-20.048L545.76,1088.223z M567.727,1108.279v-1.77
		c9.883-0.502,17.783-8.401,18.282-18.284h1.771C587.273,1099.084,578.586,1107.771,567.727,1108.279z"/>
</g>
<g>
	<path fill="#FFFFFF" d="M41.783,78.082c0,1.359-0.116,2.631-0.351,3.809h1.911c0.043,0,0.086,0.024,0.13,0.072
		c0.043,0.047,0.065,0.094,0.065,0.137v0.846c0,0.043-0.021,0.086-0.065,0.13c-0.043,0.043-0.086,0.063-0.13,0.063h-4.875v2.719
		c0,0.129-0.062,0.193-0.182,0.193h-1.132c-0.122,0-0.182-0.064-0.182-0.193v-2.719h-4.952c-0.052,0-0.096-0.021-0.13-0.063
		c-0.035-0.044-0.052-0.087-0.052-0.13V82.1c0-0.053,0.017-0.101,0.052-0.144s0.078-0.065,0.13-0.065h8.021
		c0.111-0.52,0.188-1.045,0.228-1.578c0.039-0.533,0.059-1.082,0.059-1.646c0-0.121-0.03-0.198-0.092-0.233
		c-0.061-0.035-0.151-0.053-0.272-0.053h-6.059c-0.043,0-0.087-0.016-0.13-0.045s-0.064-0.066-0.064-0.111v-0.896
		c0-0.062,0.021-0.104,0.064-0.13c0.043-0.026,0.086-0.039,0.13-0.039h7.021c0.277,0,0.49,0.072,0.637,0.221
		C41.711,77.527,41.783,77.762,41.783,78.082z M42.018,88.716c-0.043,0.026-0.086,0.039-0.13,0.039h-7.358
		c-0.39,0-0.651-0.071-0.787-0.215c-0.134-0.144-0.2-0.384-0.2-0.722v-3.002c0-0.045,0.02-0.086,0.058-0.125
		c0.039-0.039,0.08-0.059,0.124-0.059h1.118c0.052,0,0.098,0.02,0.137,0.059s0.059,0.08,0.059,0.125v2.481
		c0,0.087,0.018,0.144,0.052,0.169c0.035,0.026,0.095,0.039,0.182,0.039h6.617c0.043,0,0.086,0.016,0.13,0.047
		c0.044,0.029,0.065,0.065,0.065,0.109v0.936C42.084,88.65,42.062,88.689,42.018,88.716z"/>
	<path fill="#FFFFFF" d="M51.014,78.667c-0.069,0.841-0.244,1.634-0.526,2.379c-0.281,0.745-0.653,1.438-1.117,2.08
		c-0.465,0.642-1.013,1.235-1.646,1.78c-0.633,0.547-1.331,1.045-2.093,1.496c-0.069,0.043-0.146,0.059-0.229,0.045
		c-0.082-0.014-0.145-0.053-0.188-0.118l-0.442-0.642c-0.043-0.063-0.056-0.127-0.039-0.188c0.019-0.061,0.058-0.105,0.117-0.139
		c1.291-0.777,2.325-1.674,3.101-2.689s1.28-2.115,1.515-3.304c0.035-0.175,0.025-0.288-0.026-0.345
		c-0.052-0.058-0.16-0.084-0.325-0.084h-3.666c-0.122,0-0.182-0.062-0.182-0.184v-0.91c0-0.104,0.062-0.154,0.182-0.154h4.654
		c0.39,0,0.646,0.08,0.768,0.24C50.991,78.091,51.04,78.338,51.014,78.667z M54.523,88.885c0,0.112-0.056,0.17-0.168,0.17h-1.157
		c-0.111,0-0.169-0.058-0.169-0.17V76.887c0-0.113,0.058-0.17,0.169-0.17h1.157c0.112,0,0.168,0.057,0.168,0.17V88.885z"/>
	<path fill="#FFFFFF" d="M56.63,82.904c0.39,0.019,0.784,0.025,1.183,0.025c0.399,0,0.808,0,1.223,0v-2.47
		c0-0.13,0.062-0.194,0.183-0.194h1.104c0.121,0,0.183,0.064,0.183,0.194v2.431c0.614-0.017,1.217-0.045,1.807-0.084
		s1.148-0.088,1.678-0.148c0.043-0.01,0.088-0.006,0.137,0.013c0.048,0.019,0.075,0.058,0.085,0.117l0.063,0.793
		c0.009,0.062-0.004,0.112-0.039,0.155c-0.034,0.043-0.072,0.07-0.117,0.078c-0.598,0.069-1.227,0.125-1.885,0.17
		c-0.658,0.043-1.313,0.076-1.969,0.104s-1.292,0.044-1.912,0.053c-0.619,0.008-1.193,0.004-1.722-0.014
		c-0.052,0-0.097-0.02-0.13-0.059c-0.035-0.039-0.054-0.084-0.054-0.137V83.1C56.446,82.971,56.508,82.904,56.63,82.904z
		 M63.493,78.368c0,0.251-0.01,0.514-0.025,0.786c-0.019,0.273-0.039,0.549-0.065,0.826c-0.024,0.276-0.059,0.543-0.098,0.799
		s-0.084,0.486-0.136,0.695c-0.019,0.069-0.051,0.131-0.099,0.182c-0.048,0.053-0.103,0.074-0.163,0.064l-1.014-0.091
		c-0.112-0.009-0.156-0.091-0.13-0.247c0.034-0.164,0.069-0.361,0.104-0.591s0.064-0.462,0.092-0.696
		c0.025-0.232,0.046-0.455,0.058-0.662c0.014-0.209,0.021-0.373,0.021-0.494s-0.029-0.196-0.091-0.228
		c-0.061-0.03-0.151-0.046-0.272-0.046h-4.097c-0.043,0-0.086-0.016-0.129-0.046c-0.044-0.03-0.064-0.065-0.064-0.11V77.6
		c0-0.052,0.021-0.091,0.064-0.115c0.043-0.026,0.086-0.039,0.129-0.039h5.046c0.276,0,0.491,0.072,0.643,0.221
		C63.418,77.813,63.493,78.048,63.493,78.368z M66.686,88.742c-0.039,0.025-0.085,0.039-0.137,0.039h-7.033
		c-0.39,0-0.654-0.069-0.793-0.209c-0.139-0.139-0.208-0.377-0.208-0.715v-2.482c0-0.043,0.02-0.085,0.059-0.123
		c0.039-0.039,0.085-0.059,0.138-0.059h1.118c0.052,0,0.1,0.02,0.143,0.059c0.043,0.038,0.063,0.08,0.063,0.123v1.95
		c0,0.086,0.019,0.144,0.054,0.169c0.034,0.025,0.096,0.039,0.182,0.039h6.279c0.043,0,0.086,0.015,0.13,0.045
		c0.044,0.029,0.065,0.066,0.065,0.111v0.936C66.743,88.678,66.725,88.716,66.686,88.742z M68.102,82.268
		c-0.038,0.035-0.08,0.053-0.123,0.053h-1.703v3.225c0,0.111-0.057,0.169-0.168,0.169h-1.158c-0.111,0-0.168-0.058-0.168-0.169
		v-8.658c0-0.111,0.057-0.168,0.168-0.168h1.158c0.111,0,0.168,0.057,0.168,0.168v4.188h1.703c0.043,0,0.085,0.018,0.123,0.052
		c0.039,0.035,0.059,0.073,0.059,0.117v0.909C68.159,82.193,68.141,82.232,68.102,82.268z"/>
</g>
</svg>
